<?xml version="1.0" encoding="UTF-8"?>
<svg id="Layer_1" xmlns="http://www.w3.org/2000/svg" version="1.1" viewBox="0 0 800 800">
  <!-- Generator: Adobe Illustrator 29.1.0, SVG Export Plug-In . SVG Version: 2.1.0 Build 142)  -->
  <defs>
    <style>
      .st0 {
        fill: #d3d3d4;
      }
    </style>
  </defs>
  <g>
    <path class="st0" d="M410.2,597.2c-3.9,0-7.7-1.1-10.9-3.2l-152.7-99.1h-55.8c-11.1,0-20.1-9-20.1-20.1v-149.5c0-11.1,9-20.1,20.1-20.1h55.8l152.7-99.1c3.3-2.1,7-3.2,10.9-3.2s6.6.8,9.6,2.4c6.5,3.5,10.5,10.3,10.5,17.6v354.3c0,7.4-4,14.1-10.5,17.6-2.9,1.6-6.2,2.4-9.6,2.4Z"/>
    <path class="st0" d="M410.2,205.8c2.8,0,5.6.7,8.1,2.1,5.5,3,8.9,8.7,8.9,15v354.3c0,6.3-3.4,12-8.9,15-2.5,1.4-5.3,2.1-8.1,2.1s-6.5-.9-9.3-2.8l-153.4-99.6h-56.7c-9.4,0-17.1-7.6-17.1-17.1v-149.5c0-9.4,7.6-17.1,17.1-17.1h56.7l153.4-99.6c2.8-1.8,6.1-2.8,9.3-2.8M410.2,199.8c-4.5,0-8.8,1.3-12.6,3.7l-151.9,98.7h-54.9c-12.7,0-23.1,10.3-23.1,23.1v149.5c0,12.7,10.3,23.1,23.1,23.1h54.9l151.9,98.7c3.8,2.4,8.1,3.7,12.6,3.7s7.6-1,11-2.8c7.4-4,12.1-11.8,12.1-20.3V222.9c0-8.5-4.6-16.2-12.1-20.3-3.4-1.8-7.2-2.8-11-2.8h0Z"/>
  </g>
  <g>
    <path class="st0" d="M611.8,476.8c-4.7,0-9.1-1.8-12.4-5.1l-46.9-46.9-46.9,46.9c-3.3,3.3-7.7,5.1-12.4,5.1s-9.1-1.8-12.4-5.1c-6.8-6.8-6.8-17.9,0-24.8l46.9-46.9-46.9-46.9c-6.8-6.8-6.8-17.9,0-24.8,3.3-3.3,7.7-5.1,12.4-5.1s9.1,1.8,12.4,5.1l46.9,46.9,46.9-46.9c3.3-3.3,7.7-5.1,12.4-5.1s9.1,1.8,12.4,5.1c6.8,6.8,6.8,17.9,0,24.8l-46.9,46.9,46.9,46.9c6.8,6.8,6.8,17.9,0,24.8-3.3,3.3-7.7,5.1-12.4,5.1Z"/>
    <path class="st0" d="M611.8,326.2c3.7,0,7.4,1.4,10.3,4.2,5.7,5.7,5.7,14.9,0,20.5l-49,49,49,49c5.7,5.7,5.7,14.9,0,20.5-2.8,2.8-6.5,4.3-10.3,4.3s-7.4-1.4-10.3-4.3l-49-49-49,49c-2.8,2.8-6.5,4.3-10.3,4.3s-7.4-1.4-10.3-4.3c-5.7-5.7-5.7-14.9,0-20.5l49-49-49-49c-5.7-5.7-5.7-14.9,0-20.5,2.8-2.8,6.5-4.2,10.3-4.2s7.4,1.4,10.3,4.2l49,49,49-49c2.8-2.8,6.5-4.2,10.3-4.2M611.8,320.2c-5.5,0-10.6,2.1-14.5,6l-44.7,44.8-44.7-44.7c-3.9-3.9-9-6-14.5-6s-10.6,2.1-14.5,6c-8,8-8,21,0,29l44.8,44.7-44.7,44.7c-8,8-8,21,0,29,3.9,3.9,9,6,14.5,6s10.6-2.1,14.5-6l44.7-44.8,44.7,44.7c3.9,3.9,9,6,14.5,6s10.6-2.1,14.5-6c8-8,8-21,0-29l-44.8-44.7,44.7-44.7c8-8,8-21,0-29-3.9-3.9-9-6-14.5-6h0Z"/>
  </g>
</svg>