<?xml version="1.0" encoding="UTF-8"?>
<svg id="Layer_1" xmlns="http://www.w3.org/2000/svg" version="1.1" viewBox="0 0 800 800">
  <!-- Generator: Adobe Illustrator 29.1.0, SVG Export Plug-In . SVG Version: 2.1.0 Build 142)  -->
  <defs>
    <style>
      .st0, .st1 {
        fill: #c8c5c4;
      }

      .st1 {
        stroke: #c8c5c4;
        stroke-miterlimit: 10;
        stroke-width: 6px;
      }
    </style>
  </defs>
  <path class="st1" d="M410.2,205.8c2.8,0,5.6.7,8.1,2.1,5.5,3,8.9,8.7,8.9,15v354.3c0,6.3-3.4,12-8.9,15-2.5,1.4-5.3,2.1-8.1,2.1s-6.5-.9-9.3-2.8l-153.4-99.6h-56.7c-9.4,0-17.1-7.6-17.1-17.1v-149.5c0-9.4,7.6-17.1,17.1-17.1h56.7l153.4-99.6c2.8-1.8,6.1-2.8,9.3-2.8"/>
  <path class="st0" d="M474.7,526.7c-7.5,0-14-4.5-16.7-11.5-1.7-4.5-1.6-9.4.3-13.7,1.9-4.4,5.5-7.8,9.9-9.5,27.2-10.6,46.2-47.1,46.2-88.8s-15.5-71.4-39.4-85.5c-4.1-2.4-7.1-6.3-8.3-11-1.2-4.6-.5-9.5,1.9-13.6,3.2-5.5,9.2-8.9,15.5-8.9s6.3.9,9.1,2.5c34.7,20.4,57.2,66.1,57.2,116.5s-27.8,106.2-69.2,122.3c-2.1.8-4.3,1.2-6.5,1.2h0Z"/>
  <path class="st0" d="M506,576.6c-7.5,0-14-4.5-16.7-11.5-1.7-4.5-1.6-9.4.3-13.7s5.5-7.8,9.9-9.5c43.6-16.9,74.1-74.4,74.1-139.8s-24.6-111.9-62.8-134.3c-4.1-2.4-7.1-6.3-8.3-11-1.2-4.6-.5-9.5,1.9-13.6,3.2-5.5,9.2-8.9,15.5-8.9s6.3.9,9.1,2.5c48.9,28.7,80.5,93.5,80.5,165.3s-39.9,151.1-97.1,173.3c-2.1.8-4.3,1.2-6.5,1.2h0Z"/>
  <path class="st0" d="M538.1,624.2c-7.5,0-14.1-4.5-16.9-11.5-3.6-9.3,1-19.8,10.3-23.4,60.2-23.4,102.3-100.7,102.3-187.9s-33.7-149.4-85.8-179.9c-8.6-5-11.5-16.1-6.5-24.8,3.2-5.5,9.2-8.9,15.6-8.9s6.4.9,9.1,2.5c63,36.9,103.7,119.8,103.7,211.1s-51.6,193-125.4,221.7c-2.1.8-4.3,1.2-6.5,1.2h.1Z"/>
</svg>